Coordinates
version=1
nRows=25
nColumns=33
inDegrees=yes

Units are S.I. units (second, meters, Newtons, ...)
Angles are in degrees.

endheader
time	ground_thorax_rot_x	ground_thorax_rot_y	ground_thorax_rot_z	ground_thorax_tx	ground_thorax_ty	ground_thorax_tz	clav_prot_r	clav_elev_r	scapula_abduction_r	scapula_elevation_r	scapula_upward_rot_r	scapula_winging_r	shoulder_elv_r	plane_of_elev_r	axial_rot_r	elbow_flexion_r	pro_sup_r	wrist_flex_r	wrist_dev_r	clav_prot_l	clav_elev_l	scapula_abduction_l	scapula_elevation_l	scapula_upward_rot_l	scapula_winging_l	shoulder_elv_l	plane_of_elev_l	axial_rot_l	elbow_flexion_l	pro_sup_l	wrist_flex_l	wrist_dev_l	
4.2000	-90.000000	90.000000	-90.000000	-59.174958	784.877665	8.305924	35.910857	43.501741	45.000000	45.000000	3.764835	-3988.983108	638.640634	163.547693	-19.703766	1809.925241	27.989768	16.998790	10.689147	-45.000000	4.220932	45.000000	-15.176487	-45.000000	1915.373260	-4029.651191	153.226137	42.352582	-712.817328	28.811815	9.071968	-18.607131	
4.2100	-90.000000	90.000000	-90.000000	-58.935820	785.108735	8.575973	36.040553	43.481493	45.000000	45.000000	3.761345	-3988.929926	638.626198	163.594534	-19.647604	1810.025283	27.908384	17.059037	10.600684	-45.000000	4.256080	45.000000	-15.200410	-45.000000	1915.497938	-4029.703559	153.197420	42.058290	-712.721488	28.977350	8.937368	-18.658340	
4.2200	-90.000000	90.000000	-90.000000	-58.736478	785.320409	8.842567	36.191721	43.426404	45.000000	45.000000	3.719365	-3988.855194	638.668976	163.623421	-19.582571	1810.164551	27.828878	17.275524	10.477508	-45.000000	4.261328	45.000000	-15.171653	-45.000000	1915.737417	-4029.697030	153.078977	41.718902	-712.649336	29.142109	8.750299	-18.773004	
4.2300	-90.000000	90.000000	-90.000000	-58.621618	785.495557	9.103482	36.273729	43.426956	45.000000	45.000000	3.716929	-3988.802837	638.673465	163.656207	-19.509871	1810.277596	27.793367	17.384348	10.390479	-45.000000	4.303068	45.000000	-15.174664	-45.000000	1915.885032	-4029.739077	153.038575	41.541308	-712.575353	29.275992	8.650346	-18.838622	
4.2400	-90.000000	90.000000	-90.000000	-58.596861	785.627831	9.355842	36.320549	43.452831	45.000000	45.000000	3.721288	-3988.757082	638.681304	163.684341	-19.435221	1810.392853	27.797480	17.440511	10.338870	-45.000000	4.353774	45.000000	-15.191576	-45.000000	1915.977195	-4029.802919	153.046926	41.437489	-712.507060	29.396530	8.591451	-18.876017	
4.2500	-90.000000	90.000000	-90.000000	-58.673269	785.709477	9.596181	36.338579	43.490480	45.000000	45.000000	3.742835	-3988.719840	638.682170	163.708733	-19.372505	1810.494913	27.838776	17.494055	10.294350	-45.000000	4.411490	45.000000	-15.207444	-45.000000	1916.060720	-4029.865870	153.060704	41.401659	-712.445198	29.506609	8.557304	-18.911134	
4.2600	-90.000000	90.000000	-90.000000	-58.849950	785.737391	9.820596	36.340283	43.533634	45.000000	45.000000	3.785003	-3988.692042	638.673209	163.730147	-19.334174	1810.587175	27.915782	17.501535	10.276181	-45.000000	4.470974	45.000000	-15.232948	-45.000000	1916.098758	-4029.938568	153.111993	41.397086	-712.388448	29.619375	8.543627	-18.924907	
4.2700	-90.000000	90.000000	-90.000000	-59.120229	785.711519	10.024641	36.340586	43.562251	45.000000	45.000000	3.851582	-3988.670099	638.652708	163.749964	-19.330680	1810.659519	28.012887	17.544381	10.243185	-45.000000	4.527643	45.000000	-15.246685	-45.000000	1916.163381	-4029.985470	153.131637	41.402397	-712.336814	29.737030	8.521680	-18.957532	
4.2800	-90.000000	90.000000	-90.000000	-59.475721	785.634107	10.203630	36.334374	43.591565	45.000000	45.000000	3.928004	-3988.656999	638.630356	163.766941	-19.350434	1810.716884	28.129755	17.548208	10.238077	-45.000000	4.584024	45.000000	-15.273432	-45.000000	1916.185341	-4030.037846	153.179715	41.421190	-712.288293	29.859446	8.511250	-18.974231	
4.2900	-90.000000	90.000000	-90.000000	-59.907512	785.508942	10.353280	36.324075	43.614048	45.000000	45.000000	4.006814	-3988.646517	638.613255	163.779952	-19.387294	1810.755466	28.250793	17.596010	10.222153	-45.000000	4.641887	45.000000	-15.290725	-45.000000	1916.237638	-4030.066660	153.188884	41.459003	-712.244505	29.976013	8.496944	-19.011642	
4.3000	-90.000000	90.000000	-90.000000	-60.405519	785.341357	10.469784	36.309783	43.632856	45.000000	45.000000	4.092393	-3988.639400	638.597346	163.790269	-19.433090	1810.789801	28.373246	17.612774	10.227605	-45.000000	4.698181	45.000000	-15.318867	-45.000000	1916.251742	-4030.098382	153.222066	41.506061	-712.209466	30.081938	8.494083	-19.036405	
4.3100	-90.000000	90.000000	-90.000000	-60.959747	785.137527	10.550352	36.291422	43.649046	45.000000	45.000000	4.167893	-3988.627476	638.598807	163.796765	-19.474799	1810.819938	28.486390	17.658989	10.228333	-45.000000	4.757618	45.000000	-15.345385	-45.000000	1916.279521	-4030.112238	153.225547	41.564601	-712.180001	30.164575	8.493442	-19.071064	
4.3200	-90.000000	90.000000	-90.000000	-61.560459	784.904157	10.593329	36.270153	43.661458	45.000000	45.000000	4.237153	-3988.614151	638.609950	163.800551	-19.502728	1810.853639	28.591735	17.668796	10.252750	-45.000000	4.813567	45.000000	-15.388584	-45.000000	1916.259777	-4030.131219	153.258313	41.622921	-712.161624	30.219754	8.505275	-19.088789	
4.3300	-90.000000	90.000000	-90.000000	-62.199622	784.647952	10.598783	36.245119	43.674140	45.000000	45.000000	4.281189	-3988.593564	638.645681	163.797986	-19.506171	1810.887446	28.682782	17.711525	10.270159	-45.000000	4.874571	45.000000	-15.431525	-45.000000	1916.255151	-4030.131882	153.259091	41.683321	-712.149091	30.240247	8.518688	-19.113124	
4.3400	-90.000000	90.000000	-90.000000	-62.870719	784.375370	10.567840	36.220137	43.674657	45.000000	45.000000	4.342734	-3988.574335	638.664416	163.797917	-19.494731	1810.919282	28.762072	17.717546	10.291331	-45.000000	4.933537	45.000000	-15.488754	-45.000000	1916.207084	-4030.132493	153.285080	41.733892	-712.147810	30.228633	8.540935	-19.123253	
4.3500	-90.000000	90.000000	-90.000000	-63.569558	784.092430	10.502718	36.192289	43.677996	45.000000	45.000000	4.374482	-3988.546907	638.709810	163.790132	-19.448710	1810.954711	28.828552	17.760879	10.302014	-45.000000	4.999057	45.000000	-15.546688	-45.000000	1916.174675	-4030.112750	153.275426	41.778074	-712.147524	30.184409	8.560981	-19.139850	
4.3600	-90.000000	90.000000	-90.000000	-64.294083	783.804895	10.406490	36.165349	43.667614	45.000000	45.000000	4.428242	-3988.518866	638.731222	163.786686	-19.386461	1810.989872	28.887511	17.765289	10.313093	-45.000000	5.060394	45.000000	-15.619494	-45.000000	1916.095964	-4030.094334	153.293697	41.804504	-712.153142	30.117461	8.585553	-19.143862	
4.3700	-90.000000	90.000000	-90.000000	-65.044417	783.518322	10.282790	36.135627	43.662781	45.000000	45.000000	4.447574	-3988.483132	638.782827	163.774037	-19.289649	1811.030842	28.939725	17.811954	10.313271	-45.000000	5.128403	45.000000	-15.689307	-45.000000	1916.035994	-4030.056959	153.274794	41.819657	-712.153537	30.033022	8.603461	-19.156277	
4.3800	-90.000000	90.000000	-90.000000	-65.822086	783.238273	10.135552	36.107297	43.642334	45.000000	45.000000	4.496332	-3988.446032	638.804872	163.768741	-19.184783	1811.069238	28.990057	17.816130	10.313028	-45.000000	5.190028	44.999999	-15.770868	-45.000000	1915.927490	-4030.023952	153.287205	41.813374	-712.155301	29.944234	8.622526	-19.159068	
4.3900	-90.000000	90.000000	-90.000000	-66.630171	782.969967	9.968617	36.076146	43.628712	45.000000	45.000000	4.509079	-3988.402115	638.858664	163.751459	-19.054166	1811.113889	29.037191	17.864281	10.303154	-45.000000	5.257431	44.999999	-15.846947	-45.000000	1915.838925	-4029.972859	153.262358	41.796595	-712.147608	29.855914	8.632300	-19.172519	
4.4000	-90.000000	90.000000	-90.000000	-67.472663	782.718110	9.785498	36.046112	43.598503	45.000000	45.000000	4.553999	-3988.355001	638.880030	163.743342	-18.927516	1811.155856	29.082493	17.869202	10.293975	-45.000000	5.316588	44.999998	-15.934120	-45.000000	1915.700691	-4029.927084	153.269548	41.761793	-712.138108	29.777872	8.642145	-19.179980	
4.4100	-90.000000	90.000000	-90.000000	-68.354513	782.486549	9.589154	36.012820	43.576840	45.000000	45.000000	4.559455	-3988.303396	638.935434	163.721134	-18.786037	1811.206497	29.120793	17.920547	10.277668	-45.000000	5.380777	44.999996	-16.014003	-45.000000	1915.581904	-4029.863149	153.238097	41.723334	-712.116156	29.709174	8.642352	-19.200405	
4.4200	-90.000000	90.000000	-90.000000	-69.281166	782.278351	9.381903	35.979344	43.539546	45.000000	45.000000	4.590576	-3988.246507	638.961920	163.704928	-18.659747	1811.259408	29.149069	17.934742	10.264004	-45.000000	5.434870	44.999993	-16.103418	-45.000000	1915.416905	-4029.803085	153.230744	41.675039	-712.087990	29.652005	8.642732	-19.218682	
4.4300	-90.000000	90.000000	-90.000000	-70.258415	782.095979	9.165531	35.942844	43.508218	45.000000	45.000000	4.594931	-3988.181563	639.005283	163.678543	-18.536795	1811.316788	29.159808	17.984676	10.244666	-45.000000	5.492425	44.999988	-16.188482	-45.000000	1915.258898	-4029.728087	153.195082	41.630474	-712.047412	29.598961	8.636177	-19.249555	
4.4400	-90.000000	90.000000	-90.000000	-71.292153	781.941812	8.941335	35.906223	43.462786	45.000000	45.000000	4.624719	-3988.108176	639.015487	163.658394	-18.441322	1811.371429	29.149458	17.996019	10.231069	-45.000000	5.540313	44.999978	-16.282026	-45.000000	1915.053919	-4029.656134	153.185090	41.585026	-712.001867	29.546092	8.632926	-19.279445	
